PathFileType	4	(X/Y/Z)	Gait_latera_markers.trc
DataRate	CameraRate	NumFrames	NumMarkers	Units	OrigDataRate	OrigDataStartFrame	OrigNumFrames
100	100	8	38	m	100	45	88
Frame#	Time	RASI			RPSI			LPSI			LASI			RTROCH			RTHI			RTHI2			RTHI3			RTHI4			RKNE			RKNEM			RTIB			RTIB2			RTIB3			RTIB4			RANK			RANKM			RHEE			RTOE			RTOEL			RTOEM			LTROCH			LTHI			LTHI2			LTHI3			LTHI4			LKNE			LKNEM			LTIB			LTIB2			LTIB3			LTIB4			LANK			LANKM			LHEE			LTOE			LTOEL			LTOEM
		X1	Y1	Z1	X2	Y2	Z2	X3	Y3	Z3	X4	Y4	Z4	X5	Y5	Z5	X6	Y6	Z6	X7	Y7	Z7	X8	Y8	Z8	X9	Y9	Z9	X10	Y10	Z10	X11	Y11	Z11	X12	Y12	Z12	X13	Y13	Z13	X14	Y14	Z14	X15	Y15	Z15	X16	Y16	Z16	X17	Y17	Z17	X18	Y18	Z18	X19	Y19	Z19	X20	Y20	Z20	X21	Y21	Z21	X22	Y22	Z22	X23	Y23	Z23	X24	Y24	Z24	X25	Y25	Z25	X26	Y26	Z26	X27	Y27	Z27	X28	Y28	Z28	X29	Y29	Z29	X30	Y30	Z30	X31	Y31	Z31	X32	Y32	Z32	X33	Y33	Z33	X34	Y34	Z34	X35	Y35	Z35	X36	Y36	Z36	X37	Y37	Z37	X38	Y38	Z38

45	0.440000	-0.283871	0.980787	-0.223834	-0.219737	1.008649	-0.407955	-0.124989	0.997558	-0.401063	-0.057435	0.980383	-0.214271	-0.345689	0.903616	-0.281664	-0.360247	0.782697	-0.247385	-0.357667	0.811845	-0.188802	-0.360570	0.741971	-0.144805	-0.363087	0.708309	-0.198277	-0.356825	0.574684	-0.135753	-0.245006	0.583232	-0.106134	-0.366386	0.453247	-0.186274	-0.348334	0.431457	-0.129553	-0.337088	0.350424	-0.163413	-0.356371	0.378384	-0.219443	-0.285813	0.186366	-0.308985	-0.227110	0.180599	-0.256550	-0.224878	0.154902	-0.366791	-0.325056	0.077446	-0.168241	-0.358972	0.072656	-0.240292	-0.267058	0.058226	-0.172475	-0.009133	0.907125	-0.293301	-0.012792	0.699469	-0.274659	-0.022988	0.698847	-0.213223	-0.039429	0.617498	-0.219237	-0.029707	0.613059	-0.282242	-0.049612	0.527464	-0.268509	-0.156053	0.547826	-0.257093	-0.044959	0.308237	-0.327526	-0.062418	0.308869	-0.265604	-0.075928	0.223004	-0.280686	-0.058873	0.227803	-0.340287	-0.091193	0.097996	-0.352766	-0.161944	0.120030	-0.312506	-0.147697	0.056249	-0.403498	-0.074969	0.057097	-0.176654	-0.034007	0.043901	-0.235828	-0.130223	0.051528	-0.185055
46	0.450000	-0.283832	0.980061	-0.213720	-0.219682	1.008037	-0.397597	-0.125170	0.996837	-0.390617	-0.057406	0.979560	-0.204257	-0.345740	0.903009	-0.271725	-0.360167	0.782552	-0.236339	-0.357371	0.812007	-0.177852	-0.359929	0.742101	-0.133424	-0.362961	0.708545	-0.187121	-0.355213	0.574702	-0.123584	-0.244154	0.584246	-0.094841	-0.365123	0.450322	-0.170454	-0.348561	0.431956	-0.111946	-0.337181	0.349108	-0.141485	-0.355527	0.373851	-0.199437	-0.286100	0.175007	-0.276667	-0.228216	0.172502	-0.224132	-0.226719	0.141449	-0.334134	-0.326364	0.075479	-0.129653	-0.360817	0.066585	-0.201348	-0.268637	0.055596	-0.132764	-0.009795	0.906691	-0.283910	-0.012972	0.699309	-0.267836	-0.023800	0.697882	-0.206383	-0.040067	0.616655	-0.213660	-0.030088	0.613250	-0.276956	-0.049897	0.527153	-0.264472	-0.156547	0.547770	-0.253207	-0.045099	0.308279	-0.325420	-0.062508	0.308517	-0.263718	-0.076381	0.222884	-0.279363	-0.059147	0.227863	-0.338799	-0.091392	0.098381	-0.352641	-0.162113	0.119867	-0.312043	-0.147782	0.056294	-0.403328	-0.075007	0.056821	-0.176888	-0.034003	0.043892	-0.235806	-0.129907	0.051728	-0.184906
47	0.460000	-0.284015	0.979725	-0.203385	-0.220022	1.007428	-0.387511	-0.125248	0.996256	-0.380317	-0.057249	0.978688	-0.194154	-0.346011	0.902177	-0.261797	-0.359724	0.782107	-0.225708	-0.357257	0.811634	-0.167352	-0.359294	0.741857	-0.122773	-0.362326	0.708165	-0.176261	-0.353589	0.574238	-0.112620	-0.242921	0.583226	-0.085902	-0.363707	0.447057	-0.155302	-0.347778	0.431815	-0.095674	-0.337264	0.347435	-0.120126	-0.354822	0.368879	-0.179691	-0.287974	0.165260	-0.244490	-0.229432	0.164665	-0.191403	-0.227219	0.124200	-0.295771	-0.327995	0.074392	-0.091080	-0.362607	0.061422	-0.161953	-0.270554	0.053807	-0.092827	-0.009949	0.906073	-0.274495	-0.012997	0.698475	-0.260389	-0.024096	0.696874	-0.199733	-0.040576	0.615767	-0.208040	-0.030283	0.613001	-0.271084	-0.050149	0.527146	-0.260474	-0.156891	0.547676	-0.249236	-0.045275	0.308937	-0.323677	-0.062693	0.308210	-0.261713	-0.076329	0.222662	-0.278088	-0.059105	0.228186	-0.337426	-0.091536	0.098774	-0.352533	-0.162792	0.119902	-0.312423	-0.147858	0.056286	-0.403160	-0.074961	0.056726	-0.176784	-0.033972	0.043886	-0.235773	-0.129937	0.051448	-0.185159
48	0.470000	-0.284110	0.978734	-0.193177	-0.220006	1.006669	-0.377123	-0.125553	0.995599	-0.370114	-0.057212	0.977379	-0.183991	-0.346016	0.901204	-0.251486	-0.359279	0.781312	-0.214876	-0.356849	0.810840	-0.156835	-0.358593	0.740838	-0.112364	-0.361558	0.707199	-0.165960	-0.351737	0.573248	-0.102577	-0.241527	0.582271	-0.076730	-0.362104	0.443227	-0.140657	-0.346859	0.431268	-0.080068	-0.338213	0.345833	-0.100801	-0.354374	0.363805	-0.160473	-0.289972	0.155112	-0.211659	-0.230748	0.157371	-0.158496	-0.229071	0.110541	-0.260106	-0.329392	0.074240	-0.052309	-0.364491	0.057150	-0.122077	-0.271918	0.052634	-0.053334	-0.009953	0.905323	-0.265082	-0.013172	0.698402	-0.253764	-0.024446	0.695799	-0.192950	-0.040909	0.614991	-0.202330	-0.030434	0.612723	-0.265199	-0.050561	0.526977	-0.255871	-0.156988	0.547507	-0.244767	-0.045423	0.309048	-0.321549	-0.062377	0.308052	-0.259712	-0.076242	0.222531	-0.276763	-0.059337	0.228705	-0.336286	-0.091654	0.099217	-0.352376	-0.163114	0.119883	-0.312173	-0.147820	0.056859	-0.403492	-0.074914	0.056612	-0.176693	-0.033944	0.043895	-0.235773	-0.129980	0.051331	-0.185027
49	0.480000	-0.284116	0.977576	-0.182703	-0.220510	1.005714	-0.366692	-0.125740	0.994643	-0.359733	-0.057001	0.976263	-0.173891	-0.345876	0.900309	-0.240890	-0.359255	0.779987	-0.204596	-0.356612	0.809540	-0.146723	-0.357475	0.739249	-0.102369	-0.360711	0.705995	-0.156224	-0.349368	0.571523	-0.093213	-0.239664	0.580681	-0.068119	-0.360397	0.439036	-0.126386	-0.345547	0.430426	-0.065086	-0.337047	0.343654	-0.079182	-0.353322	0.358211	-0.141210	-0.291494	0.146095	-0.178169	-0.232206	0.150757	-0.125386	-0.231756	0.098141	-0.224719	-0.331015	0.075308	-0.014397	-0.366519	0.053955	-0.082464	-0.273143	0.052651	-0.014031	-0.009981	0.904525	-0.255540	-0.013193	0.697724	-0.246602	-0.024579	0.694673	-0.185999	-0.041136	0.613892	-0.196556	-0.030588	0.612419	-0.259310	-0.050341	0.526167	-0.251489	-0.157202	0.546796	-0.240067	-0.045649	0.309391	-0.319589	-0.062592	0.307741	-0.257644	-0.075968	0.222475	-0.275452	-0.059539	0.229058	-0.334837	-0.091801	0.099730	-0.352150	-0.163296	0.120007	-0.311756	-0.147927	0.056970	-0.403307	-0.074901	0.056477	-0.176593	-0.033935	0.043890	-0.235722	-0.129943	0.051285	-0.184951
50	0.490000	-0.284274	0.976277	-0.172226	-0.220735	1.004668	-0.356180	-0.125932	0.993581	-0.349204	-0.057783	0.975328	-0.163208	-0.346107	0.899000	-0.230816	-0.360087	0.779817	-0.196879	-0.356170	0.807708	-0.136307	-0.356870	0.737078	-0.093177	-0.359429	0.704122	-0.146594	-0.347012	0.569058	-0.084948	-0.237269	0.578483	-0.060490	-0.358532	0.434343	-0.112479	-0.343923	0.429398	-0.050651	-0.336424	0.341939	-0.059138	-0.352331	0.352662	-0.122096	-0.292949	0.137766	-0.144708	-0.233628	0.145215	-0.092239	-0.233892	0.086387	-0.188134	-0.332923	0.077505	0.023257	-0.368482	0.052073	-0.043012	-0.274793	0.054337	0.024928	-0.009887	0.903816	-0.245818	-0.013152	0.697115	-0.239463	-0.025025	0.693405	-0.178885	-0.041683	0.612849	-0.190623	-0.030687	0.612119	-0.253357	-0.050374	0.525665	-0.246858	-0.157139	0.545916	-0.235138	-0.045675	0.309700	-0.317419	-0.061744	0.307862	-0.254530	-0.074808	0.222379	-0.273167	-0.059546	0.229554	-0.333312	-0.092016	0.100262	-0.352049	-0.163555	0.119983	-0.311289	-0.148034	0.057082	-0.403134	-0.074885	0.056274	-0.176497	-0.033924	0.043894	-0.235705	-0.129895	0.051253	-0.184826
51	0.500000	-0.284346	0.974593	-0.161610	-0.221139	1.003526	-0.345690	-0.126298	0.992521	-0.338943	-0.058083	0.974031	-0.152702	-0.346574	0.897353	-0.220674	-0.359721	0.778249	-0.187087	-0.355636	0.805693	-0.126510	-0.355500	0.734551	-0.083510	-0.358850	0.702065	-0.137783	-0.344250	0.566036	-0.076990	-0.234174	0.575037	-0.054154	-0.356511	0.429451	-0.098871	-0.341949	0.428221	-0.036945	-0.335576	0.340302	-0.039713	-0.351693	0.347490	-0.103573	-0.294917	0.130674	-0.111555	-0.235210	0.140643	-0.059244	-0.236121	0.076029	-0.151378	-0.334193	0.080966	0.060499	-0.370558	0.051495	-0.004081	-0.276560	0.057660	0.063496	-0.009856	0.902977	-0.236072	-0.013203	0.696590	-0.232212	-0.025452	0.692133	-0.171739	-0.042194	0.611747	-0.184414	-0.030808	0.611743	-0.247247	-0.050457	0.525116	-0.242219	-0.157157	0.545108	-0.230144	-0.046152	0.309667	-0.315085	-0.062181	0.307510	-0.252672	-0.077405	0.220664	-0.272211	-0.059777	0.229685	-0.331678	-0.092232	0.100664	-0.351798	-0.163781	0.120023	-0.310967	-0.148152	0.057205	-0.403033	-0.074872	0.056137	-0.176390	-0.033924	0.043913	-0.235672	-0.129510	0.051267	-0.184698
52	0.510000	-0.284509	0.973071	-0.150884	-0.221714	1.002173	-0.335128	-0.126524	0.991368	-0.328333	-0.057239	0.971907	-0.143116	-0.346973	0.895792	-0.210328	-0.358304	0.775041	-0.175256	-0.355096	0.802943	-0.116280	-0.353387	0.731986	-0.073688	-0.357948	0.699667	-0.129031	-0.341516	0.562623	-0.069206	-0.230865	0.571535	-0.047863	-0.354359	0.424700	-0.085867	-0.339745	0.427113	-0.023906	-0.334567	0.339138	-0.021061	-0.350284	0.342466	-0.085184	-0.296612	0.125020	-0.078698	-0.236646	0.137370	-0.026563	-0.238059	0.067381	-0.114691	-0.335816	0.085766	0.096383	-0.372610	0.052548	0.034240	-0.278408	0.062502	0.100931	-0.009738	0.901974	-0.226330	-0.013923	0.695316	-0.224024	-0.025817	0.690684	-0.164616	-0.042948	0.610289	-0.178077	-0.031020	0.611159	-0.240906	-0.051013	0.524940	-0.237369	-0.157307	0.544334	-0.225331	-0.046061	0.309739	-0.312560	-0.062483	0.306582	-0.250331	-0.077505	0.220301	-0.270646	-0.059883	0.230084	-0.330158	-0.092388	0.100886	-0.351345	-0.164050	0.120153	-0.310686	-0.148251	0.057328	-0.402879	-0.074875	0.055944	-0.176276	-0.033922	0.043917	-0.235606	-0.129691	0.050766	-0.184473
